<?xml version="1.0" encoding="utf-8"?>
<!-- Generator: Adobe Illustrator 24.1.0, SVG Export Plug-In . SVG Version: 6.00 Build 0)  -->
<svg version="1.1" id="Capa_1" xmlns="http://www.w3.org/2000/svg" xmlns:xlink="http://www.w3.org/1999/xlink" x="0px" y="0px"
	 viewBox="0 0 20 20" style="enable-background:new 0 0 20 20;" xml:space="preserve">
<style type="text/css">
	.st0{fill:#808080;stroke:#808080;stroke-width:0.5;stroke-miterlimit:10;}
</style>
<g>
	<path class="st0" d="M14.79,19c0.76,0,1.37-0.58,1.39-1.34l0.44-13.22h1.74V3.51h-4.89v-1c0-0.79-0.65-1.44-1.44-1.44H7.68
		c-0.79,0-1.44,0.65-1.44,1.44v1H1.35v0.93h1.74l0.44,13.22C3.55,18.43,4.16,19,4.92,19H14.79z M7.17,2.51C7.17,2.24,7.4,2,7.68,2
		h4.35c0.28,0,0.51,0.23,0.51,0.51v1H7.17V2.51z M4.46,17.64L4.02,4.44h11.65l-0.44,13.2c0,0.25-0.21,0.44-0.46,0.44H4.92
		C4.69,18.08,4.48,17.89,4.46,17.64L4.46,17.64z"/>
	<path class="st0" d="M9.39,7.72h0.93v6.93H9.39V7.72z"/>
	<path class="st0" d="M6.61,7.72h0.93v6.93H6.61V7.72z"/>
	<path class="st0" d="M12.17,7.72h0.93v6.93h-0.93V7.72z"/>
</g>
</svg>
