<?xml version="1.0" encoding="utf-8"?>
<!-- Generator: Adobe Illustrator 24.0.2, SVG Export Plug-In . SVG Version: 6.00 Build 0)  -->
<svg version="1.1" id="Capa_1" xmlns="http://www.w3.org/2000/svg" xmlns:xlink="http://www.w3.org/1999/xlink" x="0px" y="0px"
	 viewBox="0 0 39.4 33" style="enable-background:new 0 0 39.4 33;" xml:space="preserve">
<style type="text/css">
	.st0{fill:#EDEEF3;}
</style>
<path class="st0" d="M34.74,28.96h-4.76V12.05c0-0.29-0.24-0.53-0.53-0.53h-3.56c-0.29,0-0.53,0.24-0.53,0.53v16.91h-2.49V15.61
	c0-0.29-0.24-0.53-0.53-0.53h-3.56c-0.29,0-0.53,0.24-0.53,0.53v13.35h-2.49v-8.01c0-0.29-0.24-0.53-0.53-0.53h-3.56
	c-0.29,0-0.53,0.24-0.53,0.53v8.01h-3.2c-0.39,0-0.71-0.32-0.71-0.71V3.2c0-0.47-0.33-0.89-0.8-0.94C5.87,2.21,5.42,2.63,5.42,3.15
	v25.81c0,0.98,0.8,1.78,1.78,1.78h27.59c0.52,0,0.94-0.45,0.89-0.98C35.63,29.29,35.2,28.96,34.74,28.96L34.74,28.96z"/>
</svg>
