<?xml version="1.0" encoding="utf-8"?>
<!-- Generator: Adobe Illustrator 24.0.2, SVG Export Plug-In . SVG Version: 6.00 Build 0)  -->
<svg version="1.1" id="Capa_1" xmlns="http://www.w3.org/2000/svg" xmlns:xlink="http://www.w3.org/1999/xlink" x="0px" y="0px"
	 viewBox="0 0 39.4 37.99" style="enable-background:new 0 0 39.4 37.99;" xml:space="preserve">
<style type="text/css">
	.st0{fill:#EDEEF3;}
</style>
<path class="st0" d="M8.79,2.53c-0.61,0-1.09,0.61-1.09,1.09v29.82c0,0.57,0.52,1.09,1.09,1.09h21.82c0.57,0,1.09-0.52,1.09-1.09
	V10.17c0-0.29-0.12-0.57-0.32-0.77l-6.55-6.55c-0.2-0.2-0.49-0.32-0.77-0.32L8.79,2.53L8.79,2.53z M9.88,4.71h13.09v5.45
	c0,0.57,0.52,1.09,1.09,1.09h5.45v21.09H9.88V4.71L9.88,4.71z M25.15,6.25l2.83,2.83h-2.83V6.25z M12.79,11.71
	c-0.6,0-1.09,0.49-1.09,1.09s0.49,1.09,1.09,1.09h7.27c0.6,0,1.09-0.49,1.09-1.09s-0.49-1.09-1.09-1.09H12.79z M12.79,18.53
	c-0.6,0-1.09,0.49-1.09,1.09s0.49,1.09,1.09,1.09h13.82c0.6,0,1.09-0.49,1.09-1.09s-0.49-1.09-1.09-1.09H12.79z M12.79,25.35
	c-0.6,0-1.09,0.49-1.09,1.09s0.49,1.09,1.09,1.09h13.82c0.6,0,1.09-0.49,1.09-1.09s-0.49-1.09-1.09-1.09H12.79z"/>
</svg>
