<?xml version="1.0" encoding="utf-8"?>
<!-- Generator: Adobe Illustrator 24.1.0, SVG Export Plug-In . SVG Version: 6.00 Build 0)  -->
<svg version="1.1" id="Capa_1" xmlns="http://www.w3.org/2000/svg" xmlns:xlink="http://www.w3.org/1999/xlink" x="0px" y="0px"
	 viewBox="0 0 21 21" style="enable-background:new 0 0 21 21;" xml:space="preserve">
<style type="text/css">
	.st0{fill:#808080;}
</style>
<path class="st0" d="M17.15,1.14c-0.36,0-0.72,0.13-1.01,0.41L8.04,9.66L8.02,9.68c-0.23,0.21-0.27,0.37-0.36,0.59
	c-0.1,0.22-0.18,0.5-0.26,0.8c-0.15,0.61-0.23,1.35-0.1,2.11c0.05,0.28,0.29,0.52,0.57,0.57c0.76,0.13,1.51,0.04,2.11-0.1
	c0.3-0.07,0.57-0.16,0.79-0.26c0.22-0.09,0.37-0.14,0.59-0.37c0.01-0.01,0.01-0.01,0.02-0.02L19.5,4.9
	c0.65-0.65,0.48-1.67-0.13-2.28l-0.94-0.94c-0.31-0.31-0.71-0.5-1.12-0.54C17.25,1.14,17.2,1.14,17.15,1.14L17.15,1.14z M17.14,2.55
	c0,0,0.11-0.05,0.29,0.12c0.31,0.32,0.63,0.63,0.95,0.94c0.17,0.17,0.12,0.29,0.12,0.29l-0.47,0.47l-1.35-1.36L17.14,2.55z
	 M15.68,4.01l1.35,1.36L10.4,12c0.01-0.02-0.07,0.05-0.18,0.1c-0.14,0.06-0.34,0.13-0.57,0.18c-0.3,0.07-0.65,0.11-1,0.11
	c0-0.34,0.04-0.69,0.11-0.99c0.06-0.23,0.13-0.44,0.19-0.58c0.03-0.08,0.06-0.13,0.07-0.14L15.68,4.01z M3,4.43
	c-1.29,0-2.35,1.06-2.35,2.35v10.8c0,1.29,1.06,2.35,2.35,2.35h10.8c1.29,0,2.35-1.06,2.35-2.35v-6.81c0.01-0.37-0.33-0.71-0.7-0.71
	c-0.37,0-0.71,0.34-0.7,0.71v6.81c0,0.53-0.41,0.94-0.94,0.94H3c-0.53,0-0.94-0.41-0.94-0.94V6.78c0-0.53,0.41-0.94,0.94-0.94h7.75
	c0.37,0.01,0.71-0.33,0.71-0.7s-0.34-0.71-0.71-0.7L3,4.43z"/>
</svg>
