<?xml version="1.0" encoding="utf-8"?>
<!-- Generator: Adobe Illustrator 24.0.2, SVG Export Plug-In . SVG Version: 6.00 Build 0)  -->
<svg version="1.1" id="Capa_1" xmlns="http://www.w3.org/2000/svg" xmlns:xlink="http://www.w3.org/1999/xlink" x="0px" y="0px"
	 viewBox="0 0 37 38" style="enable-background:new 0 0 37 38;" xml:space="preserve">
<style type="text/css">
	.st0{fill:#60C8C9;}
	.st1{fill:#F7A552;}
	.st2{fill:#FFFFFF;}
</style>
<circle class="st0" cx="-70.81" cy="68.75" r="17.69"/>
<circle class="st1" cx="18.19" cy="18.75" r="17.69"/>
<path class="st2" d="M-70.95,66.84l7.47,7.47v0c0.68,0.66,1.65,0.91,2.56,0.66s1.62-0.96,1.87-1.87c0.25-0.91,0-1.89-0.66-2.56
	l-9.36-9.36c-0.5-0.5-1.18-0.78-1.89-0.78s-1.39,0.28-1.89,0.78l-9.36,9.36c-0.66,0.68-0.91,1.65-0.66,2.56
	c0.25,0.91,0.96,1.62,1.87,1.87s1.89,0,2.56-0.66L-70.95,66.84z"/>
<path class="st2" d="M18.05,21.61l-7.47-7.47v0c-0.68-0.66-1.65-0.91-2.56-0.66s-1.62,0.96-1.87,1.87c-0.25,0.91,0,1.89,0.66,2.56
	l9.36,9.36c0.5,0.5,1.18,0.78,1.89,0.78c0.71,0,1.39-0.28,1.89-0.78l9.36-9.36c0.66-0.68,0.91-1.65,0.66-2.56s-0.96-1.62-1.87-1.87
	s-1.89,0-2.56,0.66L18.05,21.61z"/>
</svg>
