<?xml version="1.0" encoding="utf-8"?>
<!-- Generator: Adobe Illustrator 24.0.2, SVG Export Plug-In . SVG Version: 6.00 Build 0)  -->
<svg version="1.1" id="Capa_1" xmlns="http://www.w3.org/2000/svg" xmlns:xlink="http://www.w3.org/1999/xlink" x="0px" y="0px"
	 viewBox="0 0 37 38" style="enable-background:new 0 0 37 38;" xml:space="preserve">
<style type="text/css">
	.st0{fill:#60C8C9;}
	.st1{fill:#F7A552;}
	.st2{fill:#FFFFFF;}
</style>
<circle class="st0" cx="18.19" cy="18.75" r="17.69"/>
<circle class="st1" cx="19.19" cy="91.75" r="17.69"/>
<path class="st2" d="M18.05,16.84l7.47,7.47v0c0.68,0.66,1.65,0.91,2.56,0.66c0.91-0.25,1.62-0.96,1.87-1.87
	c0.25-0.91,0-1.89-0.66-2.56l-9.36-9.36c-0.5-0.5-1.18-0.78-1.89-0.78c-0.71,0-1.39,0.28-1.89,0.78L6.8,20.53
	c-0.66,0.68-0.91,1.65-0.66,2.56C6.4,24,7.11,24.72,8.02,24.96c0.91,0.25,1.89,0,2.56-0.66L18.05,16.84z"/>
<path class="st2" d="M19.05,94.61l-7.47-7.47v0c-0.68-0.66-1.65-0.91-2.56-0.66c-0.91,0.25-1.62,0.96-1.87,1.87
	c-0.25,0.91,0,1.89,0.66,2.56l9.36,9.36c0.5,0.5,1.18,0.78,1.89,0.78c0.71,0,1.39-0.28,1.89-0.78l9.36-9.36
	c0.66-0.68,0.91-1.65,0.66-2.56s-0.96-1.62-1.87-1.87c-0.91-0.25-1.89,0-2.56,0.66L19.05,94.61z"/>
</svg>
