<?xml version="1.0" encoding="utf-8"?>
<!-- Generator: Adobe Illustrator 24.0.2, SVG Export Plug-In . SVG Version: 6.00 Build 0)  -->
<svg version="1.1" id="Capa_1" xmlns="http://www.w3.org/2000/svg" xmlns:xlink="http://www.w3.org/1999/xlink" x="0px" y="0px"
	 viewBox="0 0 54 54" style="enable-background:new 0 0 54 54;" xml:space="preserve">
<style type="text/css">
	.st0{fill:#60C8C9;}
	.st1{fill:#FFFFFF;}
</style>
<g>
	<circle class="st0" cx="27" cy="27" r="26"/>
	<g>
		<path class="st1" d="M34.84,17.59c-0.89,0-1.62,0.72-1.62,1.62c0,0.89,0.72,1.62,1.62,1.62c0.89,0,1.62-0.72,1.62-1.62
			C36.45,18.32,35.73,17.59,34.84,17.59z"/>
		<path class="st1" d="M27.64,19.67c-3.75,0-6.8,3.05-6.8,6.8c0,3.75,3.05,6.8,6.8,6.8c3.75,0,6.8-3.05,6.8-6.8
			C34.44,22.72,31.39,19.67,27.64,19.67z M27.64,30.82c-2.4,0-4.35-1.95-4.35-4.35s1.95-4.35,4.35-4.35c2.4,0,4.35,1.95,4.35,4.35
			S30.04,30.82,27.64,30.82z"/>
		<path class="st1" d="M33.04,40.27H22.02c-4.57,0-8.29-3.72-8.29-8.29V20.96c0-4.57,3.72-8.29,8.29-8.29h11.02
			c4.57,0,8.29,3.72,8.29,8.29v11.02C41.33,36.55,37.61,40.27,33.04,40.27z M22.02,15.26c-3.14,0-5.69,2.55-5.69,5.69v11.02
			c0,3.14,2.55,5.69,5.69,5.69h11.02c3.14,0,5.69-2.55,5.69-5.69V20.96c0-3.14-2.55-5.69-5.69-5.69H22.02z"/>
	</g>
</g>
</svg>
