<?xml version="1.0" encoding="utf-8"?>
<!-- Generator: Adobe Illustrator 24.0.2, SVG Export Plug-In . SVG Version: 6.00 Build 0)  -->
<svg version="1.1" id="Capa_1" xmlns="http://www.w3.org/2000/svg" xmlns:xlink="http://www.w3.org/1999/xlink" x="0px" y="0px"
	 viewBox="0 0 54 54" style="enable-background:new 0 0 54 54;" xml:space="preserve">
<style type="text/css">
	.st0{fill:#5BA7E7;}
	.st1{fill:#FFFFFF;}
</style>
<circle class="st0" cx="26.4" cy="27" r="26"/>
<g>
	<path class="st1" d="M16.31,23.76h4.56V38.4h-4.56V23.76z M18.59,16.48c1.46,0,2.64,1.18,2.64,2.64c0,1.46-1.18,2.64-2.64,2.64
		c-1.46,0-2.64-1.18-2.64-2.64C15.95,17.66,17.13,16.48,18.59,16.48"/>
	<path class="st1" d="M23.72,23.76h4.37v2h0.06c0.61-1.15,2.09-2.37,4.31-2.37c4.61,0,5.46,3.03,5.46,6.98v8.03h-4.55v-7.12
		c0-1.7-0.03-3.88-2.37-3.88c-2.37,0-2.73,1.85-2.73,3.76v7.24h-4.55V23.76z"/>
</g>
</svg>
