<?xml version="1.0" encoding="utf-8"?>
<!-- Generator: Adobe Illustrator 24.0.2, SVG Export Plug-In . SVG Version: 6.00 Build 0)  -->
<svg version="1.1" id="Capa_1" xmlns="http://www.w3.org/2000/svg" xmlns:xlink="http://www.w3.org/1999/xlink" x="0px" y="0px"
	 viewBox="0 0 54 54" style="enable-background:new 0 0 54 54;" xml:space="preserve">
<style type="text/css">
	.st0{fill:#5867EC;}
	.st1{fill-rule:evenodd;clip-rule:evenodd;fill:#FFFFFF;}
</style>
<circle class="st0" cx="27" cy="27" r="26"/>
<path class="st1" d="M36.26,30.45c-0.98-0.59-2.26-1.24-3.41-0.77c-0.89,0.36-1.45,1.75-2.03,2.46c-0.29,0.36-0.65,0.42-1.1,0.24
	c-3.33-1.33-5.88-3.55-7.72-6.61c-0.31-0.48-0.26-0.85,0.12-1.29c0.56-0.65,1.25-1.4,1.4-2.28c0.15-0.88-0.26-1.91-0.63-2.69
	c-0.47-1-0.99-2.43-1.99-3c-0.92-0.52-2.14-0.23-2.96,0.44c-1.42,1.16-2.1,2.97-2.08,4.76c0.01,0.51,0.07,1.02,0.19,1.51
	c0.29,1.18,0.83,2.29,1.45,3.34c0.46,0.79,0.97,1.56,1.51,2.3c1.78,2.42,4,4.52,6.56,6.09c1.28,0.78,2.66,1.47,4.09,1.95
	c1.6,0.53,3.03,1.08,4.76,0.75c1.81-0.34,3.6-1.47,4.32-3.21c0.21-0.52,0.32-1.09,0.2-1.64C38.7,31.67,37.18,31,36.26,30.45z"/>
</svg>
