<?xml version="1.0" encoding="utf-8"?>
<!-- Generator: Adobe Illustrator 24.0.2, SVG Export Plug-In . SVG Version: 6.00 Build 0)  -->
<svg version="1.1" id="Capa_1" xmlns="http://www.w3.org/2000/svg" xmlns:xlink="http://www.w3.org/1999/xlink" x="0px" y="0px"
	 viewBox="0 0 346 120" style="enable-background:new 0 0 346 120;" xml:space="preserve">
<style type="text/css">
	.st0{fill:url(#SVGID_1_);}
	.st1{fill:url(#SVGID_2_);}
	.st2{fill:url(#SVGID_3_);}
	.st3{fill:#6C91C4;}
	.st4{fill:url(#SVGID_4_);}
	.st5{fill:url(#SVGID_5_);}
	.st6{fill:url(#SVGID_6_);}
	.st7{fill:url(#SVGID_7_);}
	.st8{fill:#000F99;}
	.st9{fill:url(#SVGID_8_);}
	.st10{fill:url(#SVGID_9_);}
	.st11{fill:url(#SVGID_10_);}
	.st12{fill:#1A1A1A;}
</style>
<g>
	<linearGradient id="SVGID_1_" gradientUnits="userSpaceOnUse" x1="52.4735" y1="59.6756" x2="54.0757" y2="37.6144">
		<stop  offset="0" style="stop-color:#29C0FD"/>
		<stop  offset="0.3045" style="stop-color:#1977EF"/>
		<stop  offset="0.6526" style="stop-color:#0B6FED"/>
		<stop  offset="0.9998" style="stop-color:#0019D6"/>
	</linearGradient>
	<polygon class="st0" points="31.27,49.67 53.17,62.61 75.07,50.47 53.17,37.16 	"/>
	<linearGradient id="SVGID_2_" gradientUnits="userSpaceOnUse" x1="55.9674" y1="84.0287" x2="74.2763" y2="50.1234">
		<stop  offset="0" style="stop-color:#00127C"/>
		<stop  offset="0.2989" style="stop-color:#001250"/>
		<stop  offset="0.5447" style="stop-color:#001264"/>
		<stop  offset="0.757" style="stop-color:#001243"/>
		<stop  offset="1" style="stop-color:#001236"/>
	</linearGradient>
	<polygon class="st1" points="53.17,87.35 53.17,62.61 75.07,50.47 75.07,75.25 	"/>
	<linearGradient id="SVGID_3_" gradientUnits="userSpaceOnUse" x1="33.7332" y1="57.5022" x2="50.7045" y2="79.8042">
		<stop  offset="0" style="stop-color:#1977EF"/>
		<stop  offset="0.4539" style="stop-color:#002FEC"/>
		<stop  offset="0.5143" style="stop-color:#002BDE"/>
		<stop  offset="0.838" style="stop-color:#001998"/>
		<stop  offset="0.9888" style="stop-color:#00127C"/>
	</linearGradient>
	<polygon class="st2" points="31.27,49.67 31.27,74.7 53.17,87.35 53.17,62.61 	"/>
	<polygon class="st3" points="86.14,33.02 92.73,36.91 99.32,33.02 92.73,29.21 	"/>
	<linearGradient id="SVGID_4_" gradientUnits="userSpaceOnUse" x1="62.2536" y1="102.5414" x2="95.4893" y2="51.4866">
		<stop  offset="0" style="stop-color:#29D4FD"/>
		<stop  offset="0.2491" style="stop-color:#29C0FD"/>
		<stop  offset="0.4915" style="stop-color:#1977EF"/>
		<stop  offset="0.7542" style="stop-color:#002FEC"/>
		<stop  offset="0.832" style="stop-color:#0025B5"/>
		<stop  offset="0.9389" style="stop-color:#00176F"/>
		<stop  offset="0.9888" style="stop-color:#001253"/>
	</linearGradient>
	<polygon class="st4" points="92.66,82.28 99.32,78.42 92.73,74.62 92.67,74.65 92.73,36.91 86.14,33.02 86.14,78.42 46.6,101.23 
		53.19,105.12 92.66,82.28 92.66,82.28 	"/>
	<linearGradient id="SVGID_5_" gradientUnits="userSpaceOnUse" x1="80.5406" y1="35.4922" x2="54.1959" y2="16.0104">
		<stop  offset="5.586592e-03" style="stop-color:#2CCCFF"/>
		<stop  offset="0.436" style="stop-color:#0B6FED"/>
		<stop  offset="0.718" style="stop-color:#002FEC"/>
		<stop  offset="0.7486" style="stop-color:#002BDE"/>
		<stop  offset="0.9125" style="stop-color:#001998"/>
		<stop  offset="0.9888" style="stop-color:#00127C"/>
	</linearGradient>
	<polygon class="st5" points="53.19,14.23 46.6,17.99 92.73,44.36 92.73,36.91 	"/>
	<polygon class="st3" points="7.09,33.04 13.68,36.93 20.27,33.04 13.87,29.35 	"/>
	<linearGradient id="SVGID_6_" gradientUnits="userSpaceOnUse" x1="46.321" y1="105.5934" x2="8.152" y2="47.3542">
		<stop  offset="0" style="stop-color:#29D4FD"/>
		<stop  offset="0.2491" style="stop-color:#29C0FD"/>
		<stop  offset="0.4915" style="stop-color:#1977EF"/>
		<stop  offset="0.7542" style="stop-color:#002FEC"/>
		<stop  offset="0.832" style="stop-color:#0025B5"/>
		<stop  offset="0.9389" style="stop-color:#00176F"/>
		<stop  offset="0.9888" style="stop-color:#001253"/>
	</linearGradient>
	<polygon class="st6" points="20.2,78.45 20.24,78.42 20.24,33.02 13.65,36.91 13.65,74.67 7.06,78.47 53.19,105.21 59.78,101.31 	
		"/>
	<linearGradient id="SVGID_7_" gradientUnits="userSpaceOnUse" x1="16.7836" y1="40.2077" x2="53.7547" y2="16.0768">
		<stop  offset="5.586592e-03" style="stop-color:#2CCCFF"/>
		<stop  offset="0.436" style="stop-color:#0B6FED"/>
		<stop  offset="0.718" style="stop-color:#002FEC"/>
		<stop  offset="0.7486" style="stop-color:#002BDE"/>
		<stop  offset="0.9125" style="stop-color:#001998"/>
		<stop  offset="0.9888" style="stop-color:#00127C"/>
	</linearGradient>
	<polygon class="st7" points="13.65,44.49 13.65,37.05 53.19,14.23 53.19,21.65 	"/>
	<polygon class="st8" points="7.06,33.02 7.06,40.79 13.65,44.6 13.65,37.16 	"/>
	<linearGradient id="SVGID_8_" gradientUnits="userSpaceOnUse" x1="47.6389" y1="89.6214" x2="106.9696" y2="54.8413">
		<stop  offset="0" style="stop-color:#29C0FD"/>
		<stop  offset="0.3045" style="stop-color:#1977EF"/>
		<stop  offset="0.6526" style="stop-color:#0B6FED"/>
		<stop  offset="0.9998" style="stop-color:#0019D6"/>
	</linearGradient>
	<polygon class="st9" points="53.19,59.73 53.19,67.18 92.71,44.58 92.59,82.32 53.19,105.12 53.19,112.56 99.32,85.95 99.32,78.52 
		99.32,78.42 99.32,40.79 99.32,33.02 	"/>
	<linearGradient id="SVGID_9_" gradientUnits="userSpaceOnUse" x1="52.5117" y1="56.2818" x2="53.84" y2="10.8981">
		<stop  offset="0" style="stop-color:#29C0FD"/>
		<stop  offset="0.3045" style="stop-color:#1977EF"/>
		<stop  offset="0.6526" style="stop-color:#0B6FED"/>
		<stop  offset="0.9998" style="stop-color:#0019D6"/>
	</linearGradient>
	<path class="st10" d="M53.19,6.65l-6.59,3.8l0,0L13.65,29.49l-0.02-0.01l-6.57,3.54l0.24,0.14l0,0l6.35,3.99L13.92,37l33.02,19.17
		l-0.08,0.05l6.59,3.89l39.29-23.2l0,0l6.59-3.89L53.19,6.65z M53.19,52.55L53.19,52.55L20.24,33.34l32.95-19.1l33.23,19.06
		L53.19,52.55z"/>
	<linearGradient id="SVGID_10_" gradientUnits="userSpaceOnUse" x1="57.511" y1="89.8854" x2="-6.8146" y2="49.9963">
		<stop  offset="0" style="stop-color:#29C0FD"/>
		<stop  offset="0.3045" style="stop-color:#1977EF"/>
		<stop  offset="0.6526" style="stop-color:#0B6FED"/>
		<stop  offset="0.9998" style="stop-color:#0019D6"/>
	</linearGradient>
	<polygon class="st11" points="13.65,44.64 53.19,67.25 53.19,59.8 7.06,33.02 7.06,78.47 7.06,78.47 7.06,86.01 53.19,112.65 
		53.19,105.21 7.07,78.48 13.65,82.23 	"/>
	<g>
		<g>
			<path class="st12" d="M129.12,71.78c1.28,0,2.33-0.11,3.16-0.32c0.83-0.21,1.5-0.5,2-0.87c0.5-0.37,0.85-0.8,1.05-1.31
				c0.19-0.5,0.29-1.06,0.29-1.68c0-1.32-0.62-2.41-1.86-3.28c-1.24-0.87-3.37-1.81-6.39-2.82c-1.32-0.46-2.63-1-3.95-1.6
				c-1.32-0.6-2.5-1.36-3.54-2.27c-1.05-0.91-1.9-2.01-2.56-3.31c-0.66-1.3-0.99-2.87-0.99-4.73s0.35-3.53,1.05-5.02
				c0.7-1.49,1.68-2.76,2.96-3.8c1.28-1.05,2.83-1.85,4.65-2.41c1.82-0.56,3.87-0.84,6.16-0.84c2.71,0,5.05,0.29,7.03,0.87
				c1.97,0.58,3.6,1.22,4.88,1.92l-2.61,7.14c-1.12-0.58-2.37-1.09-3.75-1.54c-1.37-0.44-3.03-0.67-4.97-0.67
				c-2.17,0-3.73,0.3-4.68,0.9c-0.95,0.6-1.42,1.52-1.42,2.76c0,0.74,0.17,1.36,0.52,1.86c0.35,0.5,0.84,0.96,1.48,1.36
				c0.64,0.41,1.37,0.78,2.21,1.1c0.83,0.33,1.75,0.67,2.76,1.02c2.09,0.78,3.91,1.54,5.46,2.29c1.55,0.76,2.84,1.64,3.86,2.64
				c1.03,1.01,1.79,2.19,2.29,3.54c0.5,1.36,0.75,3,0.75,4.94c0,3.76-1.32,6.67-3.95,8.74c-2.63,2.07-6.6,3.11-11.91,3.11
				c-1.78,0-3.39-0.11-4.82-0.32c-1.43-0.21-2.7-0.47-3.8-0.78c-1.1-0.31-2.05-0.64-2.85-0.99c-0.79-0.35-1.46-0.68-2-0.99l2.56-7.2
				c1.2,0.66,2.68,1.25,4.44,1.77C124.41,71.52,126.57,71.78,129.12,71.78z"/>
			<path class="st12" d="M160.02,39.32c0,1.59-0.51,2.84-1.54,3.75c-1.03,0.91-2.24,1.36-3.63,1.36c-1.39,0-2.6-0.45-3.63-1.36
				c-1.03-0.91-1.54-2.16-1.54-3.75s0.51-2.84,1.54-3.75c1.03-0.91,2.24-1.37,3.63-1.37c1.39,0,2.6,0.46,3.63,1.37
				C159.51,36.48,160.02,37.73,160.02,39.32z M159.21,78.69h-8.65V48.14h8.65V78.69z"/>
			<path class="st12" d="M192.89,74.86c0,4.99-1.27,8.7-3.8,11.12c-2.54,2.42-6.46,3.63-11.76,3.63c-1.86,0-3.72-0.17-5.58-0.49
				c-1.86-0.33-3.58-0.76-5.17-1.31l1.51-7.26c1.35,0.54,2.78,0.97,4.27,1.28c1.49,0.31,3.18,0.46,5.08,0.46
				c2.48,0,4.23-0.54,5.26-1.63c1.03-1.08,1.54-2.48,1.54-4.18v-1.1c-0.93,0.43-1.89,0.75-2.87,0.96c-0.99,0.21-2.06,0.32-3.22,0.32
				c-4.22,0-7.45-1.25-9.7-3.75c-2.25-2.5-3.37-5.99-3.37-10.48c0-2.24,0.35-4.29,1.05-6.13c0.7-1.84,1.71-3.42,3.05-4.73
				c1.34-1.32,2.97-2.33,4.91-3.05c1.94-0.72,4.12-1.07,6.56-1.07c1.05,0,2.12,0.05,3.22,0.14c1.1,0.1,2.2,0.22,3.28,0.38
				c1.08,0.16,2.12,0.34,3.11,0.55c0.99,0.21,1.87,0.44,2.64,0.67V74.86z M173.9,62.43c0,4.84,1.95,7.26,5.87,7.26
				c0.89,0,1.72-0.12,2.5-0.35c0.77-0.23,1.43-0.5,1.97-0.81V54.71c-0.43-0.08-0.93-0.15-1.51-0.2c-0.58-0.06-1.26-0.09-2.03-0.09
				c-2.29,0-3.99,0.76-5.11,2.27C174.46,58.19,173.9,60.11,173.9,62.43z"/>
			<path class="st12" d="M198.75,63.42c0-2.21,0.36-4.29,1.07-6.24c0.72-1.95,1.75-3.66,3.11-5.11c1.35-1.45,3-2.6,4.94-3.46
				c1.94-0.85,4.14-1.28,6.62-1.28c1.63,0,3.12,0.15,4.47,0.44c1.35,0.29,2.67,0.71,3.95,1.25l-1.8,6.91
				c-0.81-0.31-1.7-0.58-2.67-0.81c-0.97-0.23-2.05-0.35-3.25-0.35c-2.56,0-4.46,0.79-5.72,2.38c-1.26,1.59-1.89,3.68-1.89,6.27
				c0,2.75,0.59,4.88,1.77,6.39c1.18,1.51,3.24,2.27,6.18,2.27c1.05,0,2.17-0.1,3.37-0.29c1.2-0.19,2.3-0.5,3.31-0.93l1.22,7.09
				c-1.01,0.43-2.27,0.79-3.77,1.1c-1.51,0.31-3.18,0.46-4.99,0.46c-2.79,0-5.19-0.42-7.2-1.25c-2.01-0.83-3.67-1.96-4.96-3.4
				c-1.3-1.43-2.25-3.13-2.85-5.08C199.05,67.82,198.75,65.7,198.75,63.42z"/>
			<path class="st12" d="M240.63,79.27c-2.52-0.04-4.56-0.31-6.13-0.81c-1.57-0.5-2.81-1.21-3.72-2.12
				c-0.91-0.91-1.53-2.01-1.86-3.31c-0.33-1.3-0.49-2.76-0.49-4.38V35.02l8.65-1.39V66.9c0,0.78,0.06,1.47,0.17,2.09
				c0.12,0.62,0.34,1.14,0.67,1.57c0.33,0.43,0.8,0.77,1.42,1.05c0.62,0.27,1.45,0.45,2.5,0.52L240.63,79.27z"/>
			<path class="st12" d="M274.54,63.36c0,2.4-0.35,4.6-1.05,6.59c-0.7,1.99-1.7,3.7-3.02,5.11c-1.32,1.41-2.89,2.51-4.73,3.28
				c-1.84,0.77-3.9,1.16-6.19,1.16c-2.25,0-4.29-0.39-6.13-1.16c-1.84-0.77-3.42-1.87-4.73-3.28c-1.32-1.41-2.34-3.12-3.08-5.11
				c-0.74-1.99-1.1-4.19-1.1-6.59c0-2.4,0.38-4.59,1.13-6.56c0.76-1.97,1.8-3.66,3.14-5.05c1.34-1.39,2.92-2.48,4.76-3.25
				c1.84-0.77,3.84-1.16,6.01-1.16c2.21,0,4.23,0.39,6.07,1.16c1.84,0.77,3.42,1.86,4.73,3.25c1.32,1.39,2.34,3.08,3.08,5.05
				C274.17,58.77,274.54,60.96,274.54,63.36z M265.71,63.36c0-2.67-0.53-4.77-1.6-6.3c-1.07-1.53-2.58-2.29-4.56-2.29
				c-1.97,0-3.5,0.76-4.59,2.29c-1.08,1.53-1.63,3.63-1.63,6.3c0,2.67,0.54,4.79,1.63,6.36c1.08,1.57,2.61,2.35,4.59,2.35
				c1.97,0,3.49-0.78,4.56-2.35C265.18,68.15,265.71,66.03,265.71,63.36z"/>
			<path class="st12" d="M306.48,77.65c-1.47,0.43-3.37,0.82-5.69,1.19c-2.32,0.37-4.76,0.55-7.32,0.55c-2.59,0-4.75-0.35-6.48-1.05
				c-1.72-0.7-3.09-1.67-4.09-2.93c-1.01-1.26-1.72-2.76-2.15-4.5c-0.43-1.74-0.64-3.66-0.64-5.75V48.14h8.65v15.97
				c0,2.79,0.37,4.8,1.1,6.04c0.74,1.24,2.11,1.86,4.12,1.86c0.62,0,1.28-0.03,1.97-0.09c0.7-0.06,1.32-0.12,1.86-0.2V48.14h8.65
				V77.65z"/>
			<path class="st12" d="M340.75,77.7c-0.77,0.23-1.66,0.46-2.67,0.67c-1.01,0.21-2.06,0.4-3.16,0.55c-1.1,0.15-2.23,0.28-3.37,0.38
				c-1.14,0.1-2.24,0.15-3.28,0.15c-2.52,0-4.76-0.37-6.74-1.1c-1.97-0.73-3.64-1.79-4.99-3.16c-1.36-1.37-2.39-3.04-3.11-4.99
				c-0.72-1.95-1.07-4.15-1.07-6.59c0-2.48,0.31-4.71,0.93-6.71c0.62-1.99,1.51-3.69,2.67-5.08c1.16-1.39,2.58-2.46,4.27-3.19
				c1.68-0.73,3.61-1.1,5.78-1.1c1.2,0,2.27,0.12,3.22,0.35c0.95,0.23,1.91,0.56,2.87,0.99V35.02l8.65-1.39V77.7z M321.18,63.18
				c0,2.67,0.6,4.82,1.8,6.45c1.2,1.63,2.98,2.44,5.34,2.44c0.77,0,1.49-0.03,2.15-0.09c0.66-0.06,1.2-0.13,1.63-0.2V56.04
				c-0.54-0.35-1.25-0.64-2.12-0.87c-0.87-0.23-1.75-0.35-2.64-0.35C323.23,54.82,321.18,57.61,321.18,63.18z"/>
		</g>
	</g>
</g>
</svg>
