<?xml version="1.0" encoding="utf-8"?>
<!-- Generator: Adobe Illustrator 24.0.2, SVG Export Plug-In . SVG Version: 6.00 Build 0)  -->
<svg version="1.1" id="Capa_1" xmlns="http://www.w3.org/2000/svg" xmlns:xlink="http://www.w3.org/1999/xlink" x="0px" y="0px"
	 viewBox="0 0 54 54" style="enable-background:new 0 0 54 54;" xml:space="preserve">
<style type="text/css">
	.st0{fill:#F7A552;}
	.st1{fill:#FFFFFF;}
</style>
<circle class="st0" cx="27" cy="27" r="26"/>
<path class="st1" d="M40.64,23.47c0-3.12-2.53-5.65-5.65-5.65H20.53c-3.12,0-5.65,2.53-5.65,5.65v6.73c0,3.12,2.53,5.65,5.65,5.65
	h14.45c3.12,0,5.65-2.53,5.65-5.65V23.47z M32.14,27.34l-6.48,3.21c-0.25,0.14-1.12-0.05-1.12-0.34v-6.58
	c0-0.29,0.87-0.48,1.12-0.33l6.2,3.38C32.13,26.82,32.4,27.19,32.14,27.34z"/>
</svg>
