<?xml version="1.0" encoding="utf-8"?>
<!-- Generator: Adobe Illustrator 24.0.2, SVG Export Plug-In . SVG Version: 6.00 Build 0)  -->
<svg version="1.1" id="Capa_1" xmlns="http://www.w3.org/2000/svg" xmlns:xlink="http://www.w3.org/1999/xlink" x="0px" y="0px"
	 viewBox="0 0 49 33" style="enable-background:new 0 0 49 33;" xml:space="preserve">
<style type="text/css">
	.st0{fill:#EDEEF3;}
</style>
<path class="st0" d="M45.44,7.78H3.34C2,7.78,0.92,6.69,0.92,5.35l0,0c0-1.34,1.09-2.43,2.43-2.43h42.1c1.34,0,2.43,1.09,2.43,2.43
	l0,0C47.87,6.69,46.78,7.78,45.44,7.78z"/>
<path class="st0" d="M45.44,19.3H3.34c-1.34,0-2.43-1.09-2.43-2.43l0,0c0-1.34,1.09-2.43,2.43-2.43h42.1c1.34,0,2.43,1.09,2.43,2.43
	l0,0C47.87,18.21,46.78,19.3,45.44,19.3z"/>
<path class="st0" d="M45.44,30.83H3.34c-1.34,0-2.43-1.09-2.43-2.43l0,0c0-1.34,1.09-2.43,2.43-2.43h42.1
	c1.34,0,2.43,1.09,2.43,2.43l0,0C47.87,29.74,46.78,30.83,45.44,30.83z"/>
</svg>
