<?xml version="1.0" encoding="utf-8"?>
<!-- Generator: Adobe Illustrator 24.0.2, SVG Export Plug-In . SVG Version: 6.00 Build 0)  -->
<svg version="1.1" id="Capa_1" xmlns="http://www.w3.org/2000/svg" xmlns:xlink="http://www.w3.org/1999/xlink" x="0px" y="0px"
	 viewBox="0 0 50 50" style="enable-background:new 0 0 50 50;" xml:space="preserve">
<style type="text/css">
	.st0{fill:#848484;}
</style>
<g>
	<path class="st0" d="M13.77,38.31h6.07c0,2.73,2.2,4.93,4.93,4.93s4.93-2.2,4.93-4.93h6.07c2.09,0,3.79-1.71,3.79-3.79
		c0-1.71-1.1-3.15-2.66-3.6v-6.56c0-3.03-1.14-5.92-3.22-8.12c-1.37-1.48-3.11-2.54-5.01-3.15c0.04-0.27,0.08-0.49,0.08-0.76
		c0-2.2-1.78-3.98-3.98-3.98s-3.98,1.78-3.98,3.98c0,0.27,0.04,0.49,0.08,0.76c-1.9,0.61-3.64,1.67-5.01,3.15
		c-2.09,2.2-3.22,5.08-3.22,8.12v6.56c-1.56,0.49-2.66,1.93-2.66,3.6C9.98,36.6,11.68,38.31,13.77,38.31z M24.77,40.97
		c-1.48,0-2.66-1.18-2.66-2.66h5.31C27.43,39.79,26.25,40.97,24.77,40.97z M24.77,10.62c0.95,0,1.71,0.76,1.71,1.71
		c0,0.08,0,0.19-0.04,0.27c-0.27-0.04-0.49-0.04-0.76-0.08c-0.04,0-0.11,0-0.15,0h-0.46h-0.64h-0.42c-0.04,0-0.11,0-0.15,0
		c-0.27,0-0.53,0.04-0.76,0.08c0-0.08-0.04-0.19-0.04-0.27C23.06,11.38,23.82,10.62,24.77,10.62z M14.91,24.35
		c0-2.43,0.91-4.78,2.58-6.56c1.78-1.9,4.32-3,6.94-3h0.64c2.62,0,5.16,1.1,6.94,3c1.67,1.78,2.58,4.1,2.58,6.56v6.37H14.91V24.35z
		 M13.77,33h22c0.83,0,1.52,0.68,1.52,1.52s-0.68,1.52-1.52,1.52h-22c-0.83,0-1.52-0.68-1.52-1.52S12.94,33,13.77,33z"/>
</g>
</svg>
