<?xml version="1.0" encoding="utf-8"?>
<!-- Generator: Adobe Illustrator 24.0.2, SVG Export Plug-In . SVG Version: 6.00 Build 0)  -->
<svg version="1.1" id="Capa_1" xmlns="http://www.w3.org/2000/svg" xmlns:xlink="http://www.w3.org/1999/xlink" x="0px" y="0px"
	 viewBox="0 0 50 50" style="enable-background:new 0 0 50 50;" xml:space="preserve">
<style type="text/css">
	.st0{fill:#848484;}
</style>
<g>
	<g>
		<path class="st0" d="M25.07,42.39c-9.79,0-17.75-7.96-17.75-17.75S15.28,6.89,25.07,6.89s17.75,7.96,17.75,17.75
			S34.86,42.39,25.07,42.39z M25.07,8.89c-8.68,0-15.75,7.07-15.75,15.75s7.07,15.75,15.75,15.75s15.75-7.07,15.75-15.75
			S33.75,8.89,25.07,8.89z"/>
	</g>
	<g>
		<path class="st0" d="M27.67,20.69c0-1.4-1.22-2.28-3.08-2.28c-1.82,0-3.22,0.8-4.13,2.11l-3.45-2.02
			c1.54-2.33,4.21-3.82,8.06-3.82c4.27,0,7.23,1.91,7.23,5.27c0,4.56-4.78,5.07-4.78,8.09h-4.3C23.22,24.05,27.67,23.17,27.67,20.69
			z M22.66,32.59c0-1.45,1.14-2.53,2.73-2.53s2.73,1.08,2.73,2.53c0,1.42-1.14,2.59-2.73,2.59S22.66,34.02,22.66,32.59z"/>
	</g>
</g>
</svg>
