<?xml version="1.0" encoding="utf-8"?>
<!-- Generator: Adobe Illustrator 24.0.2, SVG Export Plug-In . SVG Version: 6.00 Build 0)  -->
<svg version="1.1" id="Capa_1" xmlns="http://www.w3.org/2000/svg" xmlns:xlink="http://www.w3.org/1999/xlink" x="0px" y="0px"
	 viewBox="0 0 39.4 37.99" style="enable-background:new 0 0 39.4 37.99;" xml:space="preserve">
<style type="text/css">
	.st0{fill:#EDEEF3;}
</style>
<g transform="translate(0,-952.36218)">
	<path class="st0" d="M19.7,955.74c-8.61,0-15.62,7.01-15.62,15.62c0,8.61,7.01,15.62,15.62,15.62s15.62-7.01,15.62-15.62
		C35.32,962.75,28.31,955.74,19.7,955.74L19.7,955.74z M19.7,959.21c6.73,0,12.15,5.42,12.15,12.15c0,6.73-5.42,12.15-12.15,12.15
		s-12.15-5.42-12.15-12.15S12.97,959.21,19.7,959.21z M19.7,962.1c-0.96,0-1.74,0.78-1.74,1.74v7.52c0,0.48,0.19,0.92,0.51,1.23
		l4.5,4.5c0.68,0.68,1.78,0.68,2.46,0c0.68-0.68,0.68-1.78,0-2.46l-3.99-3.99v-6.8C21.44,962.88,20.66,962.1,19.7,962.1z"/>
</g>
</svg>
