<?xml version="1.0" encoding="utf-8"?>
<!-- Generator: Adobe Illustrator 24.0.2, SVG Export Plug-In . SVG Version: 6.00 Build 0)  -->
<svg version="1.1" id="Capa_1" xmlns="http://www.w3.org/2000/svg" xmlns:xlink="http://www.w3.org/1999/xlink" x="0px" y="0px"
	 viewBox="0 0 54 54" style="enable-background:new 0 0 54 54;" xml:space="preserve">
<style type="text/css">
	.st0{fill:#60C8C9;}
	.st1{fill-rule:evenodd;clip-rule:evenodd;fill:#FFFFFF;}
</style>
<circle class="st0" cx="27" cy="26.85" r="26"/>
<g>
	<path class="st1" d="M33.17,22.03c1.93,1.38,4.29,2.19,6.83,2.19v-4.9c-0.48,0-0.96-0.05-1.44-0.15v3.86
		c-2.55,0-4.91-0.81-6.83-2.19v10c0,5-4.06,9.06-9.06,9.06c-1.87,0-3.6-0.56-5.05-1.53c1.65,1.68,3.94,2.73,6.48,2.73
		c5.01,0,9.07-4.06,9.07-9.06L33.17,22.03L33.17,22.03z M34.94,17.09c-0.98-1.07-1.63-2.46-1.77-4v-0.63h-1.36
		C32.15,14.41,33.32,16.07,34.94,17.09L34.94,17.09z M20.79,34.53c-0.55-0.72-0.85-1.6-0.85-2.51c0-2.29,1.86-4.14,4.15-4.14
		c0.43,0,0.85,0.07,1.26,0.19v-5.01c-0.48-0.07-0.96-0.09-1.43-0.08v3.9c-0.41-0.13-0.83-0.19-1.26-0.19
		c-2.29,0-4.15,1.86-4.15,4.14C18.5,32.44,19.43,33.85,20.79,34.53z"/>
	<path class="st1" d="M31.73,20.84c1.93,1.38,4.29,2.19,6.83,2.19v-3.86c-1.42-0.3-2.68-1.05-3.63-2.08
		c-1.62-1.01-2.79-2.68-3.13-4.63h-3.57v19.58c-0.01,2.28-1.86,4.13-4.15,4.13c-1.35,0-2.54-0.64-3.3-1.64
		c-1.35-0.68-2.28-2.08-2.28-3.7c0-2.29,1.86-4.14,4.15-4.14c0.44,0,0.86,0.07,1.26,0.19v-3.9c-4.92,0.1-8.87,4.12-8.87,9.06
		c0,2.47,0.99,4.7,2.58,6.33c1.44,0.97,3.18,1.53,5.05,1.53c5.01,0,9.06-4.06,9.06-9.06V20.84z"/>
	<path class="st1" d="M38.56,19.16v-1.04c-1.28,0-2.54-0.36-3.63-1.04C35.9,18.14,37.17,18.87,38.56,19.16z M31.81,12.46
		c-0.03-0.19-0.06-0.37-0.08-0.56v-0.63H26.8v19.58c-0.01,2.28-1.86,4.13-4.15,4.13c-0.67,0-1.3-0.16-1.87-0.44
		c0.76,0.99,1.95,1.64,3.3,1.64c2.29,0,4.14-1.85,4.15-4.13V12.46H31.81z M23.91,22.98v-1.11c-0.41-0.06-0.83-0.08-1.24-0.08
		c-5.01,0-9.07,4.06-9.07,9.06c0,3.14,1.6,5.9,4.02,7.53c-1.6-1.63-2.58-3.87-2.58-6.33C15.04,27.09,18.99,23.08,23.91,22.98
		L23.91,22.98z"/>
</g>
</svg>
