<?xml version="1.0" encoding="utf-8"?>
<!-- Generator: Adobe Illustrator 24.0.2, SVG Export Plug-In . SVG Version: 6.00 Build 0)  -->
<svg version="1.1" id="Capa_1" xmlns="http://www.w3.org/2000/svg" xmlns:xlink="http://www.w3.org/1999/xlink" x="0px" y="0px"
	 viewBox="0 0 54 54" style="enable-background:new 0 0 54 54;" xml:space="preserve">
<style type="text/css">
	.st0{fill:#5BA7E7;}
	.st1{fill:#FFFFFF;}
</style>
<circle class="st0" cx="27" cy="27" r="26"/>
<path class="st1" d="M39.89,19.43c-0.82,0.37-1.72,0.59-2.6,0.74c0.42-0.07,1.03-0.83,1.28-1.13c0.38-0.47,0.69-1,0.86-1.57
	c0.02-0.04,0.04-0.1-0.01-0.14c-0.06-0.02-0.09-0.01-0.14,0.01c-0.98,0.53-2,0.91-3.08,1.18c-0.09,0.02-0.16,0-0.21-0.06
	c-0.09-0.1-0.17-0.2-0.27-0.28c-0.45-0.39-0.94-0.69-1.49-0.91c-0.72-0.29-1.51-0.42-2.29-0.37c-0.76,0.05-1.5,0.26-2.17,0.61
	c-0.67,0.35-1.27,0.84-1.75,1.43c-0.49,0.61-0.86,1.33-1.05,2.09c-0.18,0.74-0.17,1.47-0.06,2.21c0.02,0.12,0.01,0.14-0.11,0.12
	C22.6,22.75,19.1,21.24,16.25,18c-0.12-0.14-0.19-0.14-0.29,0.01c-1.25,1.87-0.64,4.86,0.91,6.34c0.21,0.2,0.42,0.39,0.65,0.57
	c-0.08,0.02-1.12-0.09-2.04-0.57c-0.12-0.08-0.19-0.03-0.2,0.11c-0.01,0.2,0.01,0.39,0.03,0.61c0.24,1.89,1.55,3.64,3.34,4.32
	c0.21,0.09,0.45,0.17,0.68,0.21c-0.41,0.09-0.83,0.15-2,0.06c-0.15-0.03-0.2,0.04-0.15,0.18c0.88,2.4,2.78,3.12,4.21,3.52
	c0.19,0.03,0.38,0.03,0.57,0.08c-0.01,0.02-0.02,0.02-0.03,0.03c-0.47,0.72-2.11,1.26-2.87,1.52c-1.39,0.48-2.9,0.7-4.36,0.56
	c-0.23-0.03-0.28-0.03-0.35,0c-0.06,0.04-0.01,0.1,0.07,0.16c0.3,0.2,0.6,0.37,0.91,0.54c0.93,0.49,1.9,0.89,2.92,1.17
	c5.24,1.45,11.14,0.38,15.08-3.53c3.09-3.07,4.17-7.3,4.17-11.54c0-0.17,0.2-0.26,0.31-0.35c0.8-0.6,1.45-1.33,2.05-2.13
	C40,19.68,40,19.52,40,19.46c0-0.01,0-0.02,0-0.02C40,19.37,40,19.39,39.89,19.43z"/>
</svg>
