<?xml version="1.0" encoding="utf-8"?>
<!-- Generator: Adobe Illustrator 24.0.2, SVG Export Plug-In . SVG Version: 6.00 Build 0)  -->
<svg version="1.1" id="Capa_1" xmlns="http://www.w3.org/2000/svg" xmlns:xlink="http://www.w3.org/1999/xlink" x="0px" y="0px"
	 viewBox="0 0 39.4 33" style="enable-background:new 0 0 39.4 33;" xml:space="preserve">
<style type="text/css">
	.st0{fill:#EDEEF3;}
</style>
<g>
	<path class="st0" d="M9.89,4.92h16.44c0.79,0,1.55,0.31,2.11,0.88c0.56,0.56,0.88,1.32,0.88,2.11v17.18c0,0.79-0.31,1.55-0.88,2.11
		c-0.56,0.56-1.32,0.88-2.11,0.88H9.89c-0.53,0-1.03,0.28-1.29,0.75c-0.27,0.46-0.27,1.03,0,1.49c0.27,0.46,0.76,0.75,1.29,0.75
		h16.44c1.59,0,3.11-0.63,4.23-1.75c1.12-1.12,1.75-2.64,1.75-4.23V7.91c0-1.59-0.63-3.11-1.75-4.23c-1.12-1.12-2.64-1.75-4.23-1.75
		H9.89c-0.53,0-1.03,0.28-1.29,0.75c-0.27,0.46-0.27,1.03,0,1.49C8.86,4.63,9.35,4.92,9.89,4.92z"/>
	<path class="st0" d="M4.32,17.55l5.57,5.59c0.38,0.38,0.93,0.52,1.44,0.39c0.52-0.14,0.92-0.54,1.06-1.06
		c0.14-0.52-0.01-1.07-0.39-1.44l-3.01-3.03H19.6c0.53,0,1.03-0.28,1.29-0.75c0.27-0.46,0.27-1.03,0-1.49
		c-0.27-0.46-0.76-0.75-1.29-0.75H8.99l3.03-3.03c0.38-0.38,0.52-0.94,0.38-1.45C12.26,10,11.85,9.6,11.33,9.46
		c-0.52-0.14-1.07,0.02-1.45,0.4L4.3,15.44c-0.28,0.28-0.44,0.66-0.44,1.06c0,0.4,0.16,0.78,0.44,1.06L4.32,17.55z"/>
</g>
</svg>
