<?xml version="1.0" encoding="utf-8"?>
<!-- Generator: Adobe Illustrator 24.0.2, SVG Export Plug-In . SVG Version: 6.00 Build 0)  -->
<svg version="1.1" id="Capa_1" xmlns="http://www.w3.org/2000/svg" xmlns:xlink="http://www.w3.org/1999/xlink" x="0px" y="0px"
	 viewBox="0 0 30 32" style="enable-background:new 0 0 30 32;" xml:space="preserve">
<style type="text/css">
	.st0{fill-rule:evenodd;clip-rule:evenodd;fill:#FFFFFF;}
</style>
<g>
	<path class="st0" d="M15.35,4.35c-3.19,0-5.78,2.59-5.78,5.78s2.59,5.78,5.78,5.78s5.78-2.59,5.78-5.78S18.54,4.35,15.35,4.35z
		 M7.26,10.13c0-4.47,3.62-8.09,8.09-8.09s8.09,3.62,8.09,8.09s-3.62,8.09-8.09,8.09S7.26,14.59,7.26,10.13z"/>
	<path class="st0" d="M4.24,28.22h22.21c-0.58-5.62-5.33-10.01-11.11-10.01S4.82,22.6,4.24,28.22L4.24,28.22z M1.87,29.38
		c0-7.44,6.03-13.48,13.48-13.48s13.48,6.03,13.48,13.48c0,0.64-0.52,1.16-1.16,1.16H3.03C2.39,30.53,1.87,30.01,1.87,29.38
		L1.87,29.38z"/>
</g>
</svg>
