<?xml version="1.0" encoding="utf-8"?>
<!-- Generator: Adobe Illustrator 24.1.0, SVG Export Plug-In . SVG Version: 6.00 Build 0)  -->
<svg version="1.1" id="Capa_1" xmlns="http://www.w3.org/2000/svg" xmlns:xlink="http://www.w3.org/1999/xlink" x="0px" y="0px"
	 viewBox="0 0 52 55" style="enable-background:new 0 0 52 55;" xml:space="preserve">
<style type="text/css">
	.st0{fill:#5867EC;}
	.st1{fill:#FFFFFF;}
</style>
<circle class="st0" cx="26.27" cy="28.19" r="24.05"/>
<g>
	<g>
		<path class="st0" d="M17.61,37.5h17.52c0.35,0,0.64-0.29,0.64-0.64V23.56H16.97v13.29C16.97,37.21,17.26,37.5,17.61,37.5z
			 M29.76,25.24h4.21v2.72h-4.21V25.24z M29.76,29.25h4.21v2.72h-4.21V29.25z M24.27,25.24h4.21v2.72h-4.21V25.24z M24.27,29.25
			h4.21v2.72h-4.21V29.25z M24.27,33.25h4.21v2.72h-4.21V33.25z M18.77,25.24h4.21v2.72h-4.21V25.24z M18.77,29.25h4.21v2.72h-4.21
			V29.25z M18.77,33.25h4.21v2.72h-4.21V33.25z"/>
		<path class="st1" d="M17.61,39.04h17.52c1.21,0,2.19-0.98,2.19-2.19V21.13c0-1.21-0.98-2.19-2.19-2.19h-0.52v-1.09
			c0-0.6-0.49-1.08-1.08-1.08h-0.11c-0.6,0-1.08,0.49-1.08,1.08v1.09h-2.46v-1.09c0-0.6-0.49-1.08-1.08-1.08h-0.11
			c-0.6,0-1.08,0.49-1.08,1.08v1.09h-2.46v-1.09c0-0.6-0.49-1.08-1.08-1.08h-0.11c-0.6,0-1.08,0.49-1.08,1.08v1.09H20.4v-1.09
			c0-0.6-0.49-1.08-1.08-1.08h-0.11c-0.6,0-1.08,0.49-1.08,1.08v1.09h-0.52c-1.21,0-2.19,0.98-2.19,2.19v15.72
			C15.42,38.06,16.4,39.04,17.61,39.04z M16.97,23.56h18.81v13.29c0,0.35-0.29,0.64-0.64,0.64H17.61c-0.35,0-0.64-0.29-0.64-0.64
			L16.97,23.56L16.97,23.56z"/>
		<rect x="18.77" y="25.24" class="st1" width="4.21" height="2.72"/>
		<rect x="24.27" y="25.24" class="st1" width="4.21" height="2.72"/>
		<rect x="29.76" y="25.24" class="st1" width="4.21" height="2.72"/>
		<rect x="18.77" y="29.25" class="st1" width="4.21" height="2.72"/>
		<rect x="24.27" y="29.25" class="st1" width="4.21" height="2.72"/>
		<rect x="29.76" y="29.25" class="st1" width="4.21" height="2.72"/>
		<rect x="18.77" y="33.25" class="st1" width="4.21" height="2.72"/>
		<rect x="24.27" y="33.25" class="st1" width="4.21" height="2.72"/>
	</g>
</g>
</svg>
