<?xml version="1.0" encoding="utf-8"?>
<!-- Generator: Adobe Illustrator 24.0.2, SVG Export Plug-In . SVG Version: 6.00 Build 0)  -->
<svg version="1.1" id="Capa_1" xmlns="http://www.w3.org/2000/svg" xmlns:xlink="http://www.w3.org/1999/xlink" x="0px" y="0px"
	 viewBox="0 0 54 54" style="enable-background:new 0 0 54 54;" xml:space="preserve">
<style type="text/css">
	.st0{fill:#5867EC;}
	.st1{fill:#FFFFFF;}
	.st2{fill-rule:evenodd;clip-rule:evenodd;fill:#FFFFFF;}
</style>
<circle class="st0" cx="27" cy="27" r="26"/>
<g>
	<path class="st1" d="M13.88,40.21l1.96-7.32c-1.11-2-1.7-4.25-1.7-6.53c0-7.45,6.07-13.52,13.52-13.52
		c7.45,0,13.52,6.07,13.52,13.52c0,7.45-6.07,13.52-13.52,13.52c-2.24,0-4.45-0.57-6.43-1.64L13.88,40.21z M21.6,35.5l0.46,0.28
		c1.7,1.01,3.64,1.55,5.6,1.55c6.05,0,10.96-4.92,10.96-10.96s-4.92-10.96-10.96-10.96c-6.05,0-10.96,4.92-10.96,10.96
		c0,2,0.55,3.96,1.6,5.68l0.28,0.47l-1.1,4.09L21.6,35.5z"/>
	<path class="st2" d="M32.69,28.24c-0.56-0.33-1.28-0.7-1.94-0.44c-0.5,0.21-0.82,0.99-1.15,1.4c-0.17,0.21-0.37,0.24-0.62,0.14
		c-1.89-0.75-3.33-2.01-4.38-3.75c-0.18-0.27-0.14-0.48,0.07-0.73c0.31-0.37,0.71-0.79,0.8-1.29c0.09-0.5-0.15-1.08-0.36-1.53
		c-0.26-0.57-0.56-1.38-1.13-1.7c-0.52-0.3-1.21-0.13-1.68,0.25c-0.8,0.66-1.19,1.68-1.18,2.7c0,0.29,0.04,0.58,0.11,0.86
		c0.16,0.67,0.47,1.3,0.82,1.89c0.26,0.45,0.55,0.89,0.86,1.3c1.01,1.37,2.27,2.56,3.72,3.45c0.73,0.45,1.51,0.84,2.32,1.1
		c0.91,0.3,1.72,0.61,2.7,0.43c1.03-0.2,2.04-0.83,2.45-1.82c0.12-0.29,0.18-0.62,0.11-0.93C34.08,28.93,33.21,28.55,32.69,28.24z"
		/>
</g>
</svg>
