<?xml version="1.0" encoding="utf-8"?>
<!-- Generator: Adobe Illustrator 24.1.0, SVG Export Plug-In . SVG Version: 6.00 Build 0)  -->
<svg version="1.1" id="Capa_1" xmlns="http://www.w3.org/2000/svg" xmlns:xlink="http://www.w3.org/1999/xlink" x="0px" y="0px"
	 viewBox="0 0 52 55" style="enable-background:new 0 0 52 55;" xml:space="preserve">
<style type="text/css">
	.st0{fill:#60C8C9;}
	.st1{fill:#FFFFFF;}
	.st2{fill-rule:evenodd;clip-rule:evenodd;fill:#FFFFFF;}
</style>
<circle class="st0" cx="26.27" cy="28.19" r="24.05"/>
<g>
	<path class="st1" d="M13.95,40.64l1.84-6.88c-1.04-1.88-1.59-4-1.59-6.14c0-7.01,5.7-12.71,12.71-12.71
		c7.01,0,12.71,5.7,12.71,12.71c0,7.01-5.7,12.71-12.71,12.71c-2.1,0-4.18-0.53-6.04-1.54L13.95,40.64z M21.22,36.21l0.44,0.26
		c1.6,0.95,3.42,1.46,5.26,1.46c5.68,0,10.31-4.62,10.31-10.31S32.6,17.31,26.91,17.31c-5.68,0-10.31,4.62-10.31,10.31
		c0,1.88,0.52,3.72,1.51,5.34l0.27,0.44l-1.03,3.84L21.22,36.21z"/>
	<path class="st2" d="M31.64,29.38c-0.52-0.31-1.2-0.66-1.82-0.41c-0.47,0.19-0.77,0.93-1.08,1.31c-0.16,0.19-0.34,0.22-0.59,0.13
		c-1.77-0.71-3.13-1.89-4.11-3.52c-0.17-0.25-0.14-0.45,0.06-0.69c0.3-0.35,0.67-0.74,0.75-1.21c0.08-0.47-0.14-1.02-0.33-1.44
		c-0.25-0.53-0.53-1.3-1.06-1.6c-0.49-0.28-1.14-0.12-1.58,0.23c-0.76,0.62-1.12,1.58-1.11,2.54c0,0.27,0.04,0.54,0.1,0.81
		c0.15,0.63,0.44,1.22,0.77,1.78c0.25,0.42,0.52,0.83,0.81,1.23c0.95,1.29,2.13,2.41,3.5,3.25c0.68,0.42,1.42,0.79,2.18,1.04
		c0.85,0.28,1.62,0.58,2.54,0.4c0.97-0.18,1.92-0.78,2.3-1.71c0.11-0.28,0.17-0.58,0.11-0.87C32.94,30.03,32.13,29.67,31.64,29.38z"
		/>
</g>
</svg>
